<svg width="60" height="55" viewBox="0 0 60 55" fill="none" xmlns="http://www.w3.org/2000/svg">
<path d="M57.1874 37.8555V37.8125C57.1868 31.7981 54.8142 25.9868 50.5069 21.4499C46.1996 16.9131 40.2481 13.9567 33.7499 13.1259V12.4609C33.749 11.6635 33.4029 10.8989 32.7878 10.3351C32.1727 9.77118 31.3386 9.45401 30.4687 9.45312H29.5312C28.6612 9.45401 27.8272 9.77118 27.212 10.3351C26.5969 10.8989 26.2509 11.6635 26.2499 12.4609V13.1259C19.7517 13.9567 13.8003 16.9131 9.49297 21.4499C5.18568 25.9868 2.813 31.7981 2.81242 37.8125V37.8555C2.24282 37.9615 1.73651 38.2577 1.39178 38.6867C1.04706 39.1157 0.888517 39.6468 0.94693 40.1769C1.00534 40.7069 1.27654 41.1982 1.70789 41.5553C2.13923 41.9125 2.69994 42.1099 3.28117 42.1094H6.56242V42.5391C6.56338 43.3365 6.90939 44.101 7.52454 44.6649C8.13968 45.2288 8.97372 45.546 9.84367 45.5469H50.1562C51.0261 45.546 51.8602 45.2288 52.4753 44.6649C53.0904 44.101 53.4365 43.3365 53.4374 42.5391V42.1094H56.7187C57.2999 42.1099 57.8606 41.9125 58.292 41.5553C58.7233 41.1982 58.9945 40.7069 59.0529 40.1769C59.1113 39.6468 58.9528 39.1157 58.6081 38.6867C58.2633 38.2577 57.757 37.9615 57.1874 37.8555ZM28.1249 12.4609C28.1252 12.1191 28.2735 11.7914 28.5371 11.5497C28.8008 11.3081 29.1583 11.1722 29.5312 11.1719H30.4687C30.8415 11.1722 31.199 11.3081 31.4627 11.5497C31.7264 11.7914 31.8746 12.1191 31.8749 12.4609V12.8906H28.1249V12.4609ZM12.1019 21.406C15.6419 18.1612 20.152 15.9515 25.062 15.0562C29.972 14.161 35.0613 14.6205 39.6864 16.3766C44.3115 18.1327 48.2647 21.1066 51.0461 24.9221C53.8275 28.7376 55.3122 33.2235 55.3124 37.8125H4.68742C4.67824 34.7642 5.32884 31.7445 6.60155 28.9283C7.87425 26.1121 9.74378 23.5553 12.1019 21.406ZM51.5624 42.5391C51.5621 42.8809 51.4139 43.2086 51.1502 43.4503C50.8865 43.6919 50.529 43.8278 50.1562 43.8281H9.84367C9.4708 43.8278 9.1133 43.6919 8.84964 43.4503C8.58599 43.2086 8.43773 42.8809 8.43742 42.5391V42.1094H51.5624V42.5391ZM56.7187 40.3906H3.28117C3.15685 40.3906 3.03762 40.3454 2.94971 40.2648C2.86181 40.1842 2.81242 40.0749 2.81242 39.9609C2.81242 39.847 2.86181 39.7377 2.94971 39.6571C3.03762 39.5765 3.15685 39.5312 3.28117 39.5312H56.7187C56.843 39.5312 56.9622 39.5765 57.0501 39.6571C57.138 39.7377 57.1874 39.847 57.1874 39.9609C57.1874 40.0749 57.138 40.1842 57.0501 40.2648C56.9622 40.3454 56.843 40.3906 56.7187 40.3906Z" fill="black"/>
<path d="M25.3125 34.375H8.4375C8.18886 34.375 7.9504 34.4655 7.77459 34.6267C7.59877 34.7879 7.5 35.0065 7.5 35.2344C7.5 35.4623 7.59877 35.6809 7.77459 35.842C7.9504 36.0032 8.18886 36.0938 8.4375 36.0938H25.3125C25.5611 36.0938 25.7996 36.0032 25.9754 35.842C26.1512 35.6809 26.25 35.4623 26.25 35.2344C26.25 35.0065 26.1512 34.7879 25.9754 34.6267C25.7996 34.4655 25.5611 34.375 25.3125 34.375Z" fill="black"/>
<path d="M29.062 34.375H28.1245C27.8759 34.375 27.6374 34.4655 27.4616 34.6267C27.2858 34.7879 27.187 35.0065 27.187 35.2344C27.187 35.4623 27.2858 35.6809 27.4616 35.842C27.6374 36.0032 27.8759 36.0938 28.1245 36.0938H29.062C29.3107 36.0938 29.5491 36.0032 29.7249 35.842C29.9007 35.6809 29.9995 35.4623 29.9995 35.2344C29.9995 35.0065 29.9007 34.7879 29.7249 34.6267C29.5491 34.4655 29.3107 34.375 29.062 34.375Z" fill="black"/>
</svg>
