<svg width="367" height="372" viewBox="0 0 367 372" fill="none" xmlns="http://www.w3.org/2000/svg">
<g filter="url(#filter0_d)">
<mask id="mask0" style="mask-type:alpha" maskUnits="userSpaceOnUse" x="52" y="49" width="265" height="266">
<ellipse cx="184.5" cy="182" rx="132.5" ry="133" fill="#C4C4C4"/>
</mask>
<g mask="url(#mask0)">
</g>
<g filter="url(#filter1_d)">
<path d="M183.5 61.2091C158.254 61.2089 133.658 69.3302 113.241 84.4073C92.825 99.4843 77.639 120.742 69.8634 145.127C62.0879 169.513 62.1227 195.773 69.9629 220.138C77.803 244.502 93.0453 265.718 113.502 280.739L113.611 280.817L113.632 280.832C133.976 295.717 158.416 303.726 183.492 303.726C208.568 303.726 233.009 295.717 253.353 280.832L253.47 280.749C273.929 265.731 289.174 244.517 297.018 220.154C304.862 195.79 304.9 169.53 297.127 145.142C289.355 120.755 274.171 99.4959 253.757 84.4161C233.342 69.3363 208.746 61.2119 183.5 61.2091ZM120.604 274.688V266.842C120.599 259.083 122.1 251.4 125.021 244.231C127.943 237.062 132.227 230.547 137.629 225.06C143.031 219.573 149.446 215.22 156.506 212.251C163.565 209.282 171.132 207.755 178.774 207.756H183.206H183.5C183.5 207.756 183.694 207.756 183.794 207.756H188.226C195.868 207.755 203.435 209.282 210.494 212.251C217.554 215.22 223.969 219.573 229.371 225.06C234.773 230.547 239.057 237.062 241.979 244.231C244.9 251.4 246.401 259.083 246.396 266.842V274.688C227.92 287.684 205.977 294.647 183.5 294.647C161.023 294.647 139.08 287.684 120.604 274.688ZM183.794 198.691H183.206C172.728 198.647 162.694 194.393 155.296 186.86C147.898 179.326 143.738 169.126 143.726 158.488C143.726 157.45 143.769 156.397 143.856 155.339C144.679 145.236 149.215 135.816 156.562 128.951C163.909 122.086 173.53 118.277 183.515 118.281C193.5 118.285 203.119 122.101 210.461 128.972C217.803 135.843 222.331 145.266 223.146 155.37C223.23 156.407 223.274 157.445 223.274 158.482C223.262 169.121 219.102 179.321 211.704 186.855C204.306 194.388 194.272 198.642 183.794 198.686V198.691ZM255.338 267.648V266.842C255.346 252.138 250.667 237.827 242.001 226.046C233.335 214.265 221.147 205.648 207.259 201.482C214.817 197.225 221.117 190.992 225.504 183.43C229.891 175.869 232.205 167.253 232.208 158.477C232.208 157.18 232.154 155.884 232.049 154.628C231.056 142.249 225.511 130.702 216.518 122.283C207.525 113.863 195.741 109.187 183.508 109.183C171.275 109.179 159.488 113.848 150.489 122.262C141.491 130.676 135.939 142.219 134.938 154.597C134.831 155.871 134.777 157.175 134.777 158.488C134.781 167.264 137.098 175.879 141.488 183.439C145.877 190.999 152.18 197.229 159.741 201.482C145.853 205.648 133.664 214.265 124.998 226.045C116.332 237.826 111.654 252.138 111.662 266.842V267.648C94.5035 252.741 82.2563 232.852 76.5698 210.662C70.8833 188.472 72.0306 165.046 79.8573 143.538C87.6839 122.03 101.814 103.474 120.345 90.368C138.875 77.2621 160.916 70.236 183.5 70.236C206.084 70.236 228.125 77.2621 246.655 90.368C265.186 103.474 279.316 122.03 287.143 143.538C294.969 165.046 296.117 188.472 290.43 210.662C284.744 232.852 272.496 252.741 255.338 267.648Z" fill="#FEFEFE" fill-opacity="0.9"/>
</g>
</g>
<defs>
<filter id="filter0_d" x="0" y="0" width="367" height="372" filterUnits="userSpaceOnUse" color-interpolation-filters="sRGB">
<feFlood flood-opacity="0" result="BackgroundImageFix"/>
<feColorMatrix in="SourceAlpha" type="matrix" values="0 0 0 0 0 0 0 0 0 0 0 0 0 0 0 0 0 0 127 0" result="hardAlpha"/>
<feOffset dy="4"/>
<feGaussianBlur stdDeviation="10"/>
<feComposite in2="hardAlpha" operator="out"/>
<feColorMatrix type="matrix" values="0 0 0 0 0 0 0 0 0 0 0 0 0 0 0 0 0 0 0.25 0"/>
<feBlend mode="normal" in2="BackgroundImageFix" result="effect1_dropShadow"/>
<feBlend mode="normal" in="SourceGraphic" in2="effect1_dropShadow" result="shape"/>
</filter>
<filter id="filter1_d" x="0" y="0" width="367" height="372" filterUnits="userSpaceOnUse" color-interpolation-filters="sRGB">
<feFlood flood-opacity="0" result="BackgroundImageFix"/>
<feColorMatrix in="SourceAlpha" type="matrix" values="0 0 0 0 0 0 0 0 0 0 0 0 0 0 0 0 0 0 127 0" result="hardAlpha"/>
<feOffset dy="4"/>
<feGaussianBlur stdDeviation="10"/>
<feComposite in2="hardAlpha" operator="out"/>
<feColorMatrix type="matrix" values="0 0 0 0 0 0 0 0 0 0 0 0 0 0 0 0 0 0 0.25 0"/>
<feBlend mode="normal" in2="BackgroundImageFix" result="effect1_dropShadow"/>
<feBlend mode="normal" in="SourceGraphic" in2="effect1_dropShadow" result="shape"/>
</filter>
</defs>
</svg>
