<svg width="239" height="243" viewBox="0 0 239 243" fill="none" xmlns="http://www.w3.org/2000/svg">
<path d="M119.5 0.209064C94.2542 0.208855 69.6576 8.33023 49.2413 23.4073C28.825 38.4843 13.639 59.7416 5.86345 84.1273C-1.9121 108.513 -1.87729 134.773 5.96288 159.138C13.803 183.502 29.0453 204.718 49.5016 219.739L49.6114 219.817L49.6319 219.832C69.976 234.717 94.4164 242.726 119.492 242.726C144.568 242.726 169.009 234.717 189.353 219.832L189.47 219.749C209.929 204.731 225.174 183.517 233.018 159.154C240.862 134.79 240.9 108.53 233.127 84.1425C225.355 59.7554 210.171 38.4959 189.757 23.4161C169.342 8.33634 144.746 0.211853 119.5 0.209064ZM56.6036 213.688V205.842C56.5989 198.083 58.1001 190.4 61.0215 183.231C63.9428 176.062 68.227 169.547 73.6292 164.06C79.0314 158.573 85.4457 154.22 92.5055 151.251C99.5654 148.282 107.132 146.755 114.774 146.756H119.206H119.5C119.5 146.756 119.694 146.756 119.794 146.756H124.226C131.868 146.755 139.435 148.282 146.494 151.251C153.554 154.22 159.969 158.573 165.371 164.06C170.773 169.547 175.057 176.062 177.979 183.231C180.9 190.4 182.401 198.083 182.396 205.842V213.688C163.92 226.684 141.977 233.647 119.5 233.647C97.0226 233.647 75.0802 226.684 56.6036 213.688ZM119.794 137.691H119.206C108.728 137.647 98.6938 133.393 91.2958 125.86C83.8978 118.326 79.7381 108.126 79.7261 97.4877C79.7261 96.4502 79.7695 95.3971 79.8564 94.3389C80.6795 84.2356 85.2148 74.8161 92.5619 67.9509C99.909 61.0857 109.53 57.2769 119.515 57.2808C129.5 57.2847 139.119 61.1011 146.461 67.9721C153.803 74.8431 158.331 84.2661 159.146 94.37C159.23 95.4075 159.274 96.445 159.274 97.4825C159.262 108.121 155.102 118.321 147.704 125.855C140.306 133.388 130.272 137.642 119.794 137.686V137.691ZM191.338 206.648V205.842C191.346 191.138 186.667 176.827 178.001 165.046C169.335 153.265 157.147 144.648 143.259 140.482C150.817 136.225 157.117 129.992 161.504 122.43C165.891 114.869 168.205 106.253 168.208 97.4773C168.208 96.1804 168.154 94.8835 168.049 93.6282C167.056 81.249 161.511 69.7024 152.518 61.2828C143.525 52.8632 131.741 48.1868 119.508 48.1829C107.275 48.179 95.4877 52.8478 86.4892 61.2617C77.4907 69.6755 71.9393 81.2185 70.9379 93.597C70.8307 94.8706 70.777 96.1752 70.777 97.4877C70.7808 106.264 73.0979 114.879 77.4877 122.439C81.8775 129.999 88.1801 136.229 95.7414 140.482C81.8525 144.648 69.6644 153.265 60.9984 165.045C52.3324 176.826 47.6539 191.138 47.6622 205.842V206.648C30.5035 191.741 18.2563 171.852 12.5698 149.662C6.8833 127.472 8.03062 104.046 15.8573 82.5382C23.6839 61.0303 37.814 42.474 56.3446 29.368C74.8753 16.2621 96.9165 9.23599 119.5 9.23599C142.084 9.23599 164.125 16.2621 182.655 29.368C201.186 42.474 215.316 61.0303 223.143 82.5382C230.969 104.046 232.117 127.472 226.43 149.662C220.744 171.852 208.496 191.741 191.338 206.648Z" fill="#FEFEFE" fill-opacity="0.9"/>
</svg>
