<svg width="352" height="330" viewBox="0 0 352 330" fill="none" xmlns="http://www.w3.org/2000/svg">
<g filter="url(#filter0_d)">
<mask id="mask0" style="mask-type:alpha" maskUnits="userSpaceOnUse" x="4" y="0" width="344" height="327">
<path d="M138.375 76.6406C138.375 79.4647 140.782 81.75 143.75 81.75H208.25C211.218 81.75 213.625 79.4647 213.625 76.6406C213.625 62.331 204.716 49.9907 191.911 44.2776C195.347 40.6542 197.5 35.9081 197.5 30.6562C197.5 19.3847 187.855 10.2188 176 10.2188C164.145 10.2188 154.5 19.3847 154.5 30.6562C154.5 35.9081 156.653 40.6542 160.089 44.2776C147.284 49.9907 138.375 62.331 138.375 76.6406ZM165.25 30.6562C165.25 25.023 170.071 20.4375 176 20.4375C181.929 20.4375 186.75 25.023 186.75 30.6562C186.75 36.2895 181.929 40.875 176 40.875C170.071 40.875 165.25 36.2895 165.25 30.6562ZM176 51.0938C188.978 51.0938 199.838 59.8855 202.334 71.5312H149.666C152.162 59.8855 163.022 51.0938 176 51.0938Z" fill="#FCFCFC" fill-opacity="0.94"/>
<path d="M224.375 112.406C224.375 115.23 226.782 117.516 229.75 117.516H294.25C297.218 117.516 299.625 115.23 299.625 112.406C299.625 98.0966 290.716 85.7564 277.911 80.0432C281.347 76.4198 283.5 71.6737 283.5 66.4219C283.5 55.1503 273.855 45.9844 262 45.9844C250.145 45.9844 240.5 55.1503 240.5 66.4219C240.5 71.6737 242.653 76.4198 246.089 80.0432C233.284 85.7564 224.375 98.0966 224.375 112.406ZM251.25 66.4219C251.25 60.7886 256.071 56.2031 262 56.2031C267.929 56.2031 272.75 60.7886 272.75 66.4219C272.75 72.0552 267.929 76.6406 262 76.6406C256.071 76.6406 251.25 72.0552 251.25 66.4219ZM262 86.8594C274.978 86.8594 285.838 95.6511 288.334 107.297H235.666C238.162 95.6511 249.022 86.8594 262 86.8594Z" fill="#FCFCFC" fill-opacity="0.94"/>
<path d="M262 209.484C250.145 209.484 240.5 218.65 240.5 229.922C240.5 235.174 242.653 239.92 246.089 243.543C233.284 249.256 224.375 261.597 224.375 275.906C224.375 278.73 226.782 281.016 229.75 281.016H294.25C297.218 281.016 299.625 278.73 299.625 275.906C299.625 261.597 290.716 249.256 277.911 243.543C281.347 239.92 283.5 235.174 283.5 229.922C283.5 218.65 273.855 209.484 262 209.484ZM251.25 229.922C251.25 224.289 256.071 219.703 262 219.703C267.929 219.703 272.75 224.289 272.75 229.922C272.75 235.555 267.929 240.141 262 240.141C256.071 240.141 251.25 235.555 251.25 229.922ZM288.334 270.797H235.666C238.162 259.151 249.022 250.359 262 250.359C274.978 250.359 285.838 259.151 288.334 270.797Z" fill="#FCFCFC" fill-opacity="0.94"/>
<path d="M138.375 311.672C138.375 314.496 140.782 316.781 143.75 316.781H208.25C211.218 316.781 213.625 314.496 213.625 311.672C213.625 297.362 204.716 285.022 191.911 279.309C195.347 275.685 197.5 270.939 197.5 265.688C197.5 254.416 187.855 245.25 176 245.25C164.145 245.25 154.5 254.416 154.5 265.688C154.5 270.939 156.653 275.685 160.089 279.309C147.284 285.022 138.375 297.362 138.375 311.672ZM165.25 265.688C165.25 260.054 170.071 255.469 176 255.469C181.929 255.469 186.75 260.054 186.75 265.688C186.75 271.321 181.929 275.906 176 275.906C170.071 275.906 165.25 271.321 165.25 265.688ZM176 286.125C188.978 286.125 199.838 294.917 202.334 306.562H149.666C152.162 294.917 163.022 286.125 176 286.125Z" fill="#FCFCFC" fill-opacity="0.94"/>
<path d="M315.536 161.793C318.972 158.17 321.125 153.424 321.125 148.172C321.125 136.9 311.48 127.734 299.625 127.734C287.77 127.734 278.125 136.9 278.125 148.172C278.125 153.424 280.278 158.17 283.714 161.793C270.909 167.506 262 179.847 262 194.156C262 196.98 264.407 199.266 267.375 199.266H331.875C334.843 199.266 337.25 196.98 337.25 194.156C337.25 179.847 328.341 167.506 315.536 161.793ZM288.875 148.172C288.875 142.539 293.696 137.953 299.625 137.953C305.554 137.953 310.375 142.539 310.375 148.172C310.375 153.805 305.554 158.391 299.625 158.391C293.696 158.391 288.875 153.805 288.875 148.172ZM273.291 189.047C275.787 177.401 286.647 168.609 299.625 168.609C312.603 168.609 323.463 177.401 325.959 189.047H273.291Z" fill="#FCFCFC" fill-opacity="0.94"/>
<path d="M52.375 112.406C52.375 115.23 54.7817 117.516 57.75 117.516H122.25C125.218 117.516 127.625 115.23 127.625 112.406C127.625 98.0966 118.716 85.7564 105.911 80.0432C109.347 76.4198 111.5 71.6737 111.5 66.4219C111.5 55.1503 101.855 45.9844 90 45.9844C78.1451 45.9844 68.5 55.1503 68.5 66.4219C68.5 71.6737 70.6527 76.4198 74.0885 80.0432C61.2839 85.7564 52.375 98.0966 52.375 112.406ZM79.25 66.4219C79.25 60.7886 84.0712 56.2031 90 56.2031C95.9288 56.2031 100.75 60.7886 100.75 66.4219C100.75 72.0552 95.9288 76.6406 90 76.6406C84.0712 76.6406 79.25 72.0552 79.25 66.4219ZM90 86.8594C102.978 86.8594 113.838 95.6511 116.334 107.297H63.6656C66.1616 95.6511 77.0218 86.8594 90 86.8594Z" fill="#FCFCFC" fill-opacity="0.94"/>
<path d="M52.375 275.906C52.375 278.73 54.7817 281.016 57.75 281.016H122.25C125.218 281.016 127.625 278.73 127.625 275.906C127.625 261.597 118.716 249.256 105.911 243.543C109.347 239.92 111.5 235.174 111.5 229.922C111.5 218.65 101.855 209.484 90 209.484C78.1451 209.484 68.5 218.65 68.5 229.922C68.5 235.174 70.6527 239.92 74.0885 243.543C61.2839 249.256 52.375 261.597 52.375 275.906ZM79.25 229.922C79.25 224.289 84.0712 219.703 90 219.703C95.9288 219.703 100.75 224.289 100.75 229.922C100.75 235.555 95.9288 240.141 90 240.141C84.0712 240.141 79.25 235.555 79.25 229.922ZM90 250.359C102.978 250.359 113.838 259.151 116.334 270.797H63.6656C66.1616 259.151 77.0218 250.359 90 250.359Z" fill="#FCFCFC" fill-opacity="0.94"/>
<path d="M14.75 194.156C14.75 196.98 17.1567 199.266 20.125 199.266H84.625C87.5933 199.266 90 196.98 90 194.156C90 179.847 81.0911 167.506 68.2864 161.793C71.7223 158.17 73.875 153.424 73.875 148.172C73.875 136.9 64.2299 127.734 52.375 127.734C40.5201 127.734 30.875 136.9 30.875 148.172C30.875 153.424 33.0277 158.17 36.4635 161.793C23.6589 167.506 14.75 179.847 14.75 194.156ZM41.625 148.172C41.625 142.539 46.4462 137.953 52.375 137.953C58.3038 137.953 63.125 142.539 63.125 148.172C63.125 153.805 58.3038 158.391 52.375 158.391C46.4462 158.391 41.625 153.805 41.625 148.172ZM52.375 168.609C65.3532 168.609 76.2134 177.401 78.7093 189.047H26.0407C28.5366 177.401 39.3968 168.609 52.375 168.609Z" fill="#FCFCFC" fill-opacity="0.94"/>
<path d="M116.875 163.5C116.875 194.491 143.398 219.703 176 219.703C208.602 219.703 235.125 194.491 235.125 163.5C235.125 132.509 208.602 107.297 176 107.297C143.398 107.297 116.875 132.509 116.875 163.5ZM176 117.516C202.673 117.516 224.375 138.143 224.375 163.5C224.375 188.857 202.673 209.484 176 209.484C149.327 209.484 127.625 188.857 127.625 163.5C127.625 138.143 149.327 117.516 176 117.516Z" fill="#FCFCFC" fill-opacity="0.94"/>
</mask>
<g mask="url(#mask0)">
<ellipse cx="175.5" cy="161" rx="175.5" ry="161" fill="#F5ECEC"/>
</g>
</g>
<defs>
<filter id="filter0_d" x="0" y="0" width="352" height="330" filterUnits="userSpaceOnUse" color-interpolation-filters="sRGB">
<feFlood flood-opacity="0" result="BackgroundImageFix"/>
<feColorMatrix in="SourceAlpha" type="matrix" values="0 0 0 0 0 0 0 0 0 0 0 0 0 0 0 0 0 0 127 0" result="hardAlpha"/>
<feOffset dy="4"/>
<feGaussianBlur stdDeviation="2"/>
<feColorMatrix type="matrix" values="0 0 0 0 0 0 0 0 0 0 0 0 0 0 0 0 0 0 0.3 0"/>
<feBlend mode="normal" in2="BackgroundImageFix" result="effect1_dropShadow"/>
<feBlend mode="normal" in="SourceGraphic" in2="effect1_dropShadow" result="shape"/>
</filter>
</defs>
</svg>
