<svg width="49" height="48" viewBox="0 0 49 48" fill="none" xmlns="http://www.w3.org/2000/svg">
<path d="M35.9766 32.2545C32.1768 32.2545 29.0859 35.2822 29.0859 39.0044C29.0859 42.7267 32.1768 45.7544 35.9766 45.7544C39.7764 45.7544 42.8672 42.7267 42.8672 39.0044C42.8672 35.2822 39.7764 32.2545 35.9766 32.2545ZM35.9766 44.2544C33.022 44.2544 30.6172 41.8987 30.6172 39.0044C30.6172 36.1102 33.022 33.7545 35.9766 33.7545C38.9311 33.7545 41.3359 36.1102 41.3359 39.0044C41.3359 41.8987 38.9319 44.2544 35.9766 44.2544Z" fill="black"/>
<path d="M35.9766 34.5045C33.4431 34.5045 31.3828 36.5227 31.3828 39.0044C31.3828 41.4862 33.4431 43.5044 35.9766 43.5044C38.51 43.5044 40.5703 41.4862 40.5703 39.0044C40.5703 36.5227 38.51 34.5045 35.9766 34.5045ZM35.9766 42.0044C34.2876 42.0044 32.9141 40.6589 32.9141 39.0044C32.9141 37.35 34.2876 36.0045 35.9766 36.0045C37.6655 36.0045 39.0391 37.35 39.0391 39.0044C39.0391 40.6589 37.6655 42.0044 35.9766 42.0044Z" fill="black"/>
<path d="M26.7983 35.2485H19.9199C19.4965 35.2485 19.1543 35.5838 19.1543 35.9985C19.1543 36.4133 19.4965 36.7485 19.9199 36.7485H26.7983C27.2217 36.7485 27.5639 36.4133 27.5639 35.9985C27.5639 35.5838 27.2217 35.2485 26.7983 35.2485Z" fill="black"/>
<path d="M26.7983 37.4925H19.9199C19.4965 37.4925 19.1543 37.8277 19.1543 38.2425C19.1543 38.6572 19.4965 38.9925 19.9199 38.9925H26.7983C27.2217 38.9925 27.5639 38.6572 27.5639 38.2425C27.5639 37.8277 27.2217 37.4925 26.7983 37.4925Z" fill="black"/>
<path d="M26.7983 39.7365H19.9199C19.4965 39.7365 19.1543 40.0718 19.1543 40.4865C19.1543 40.9013 19.4965 41.2365 19.9199 41.2365H26.7983C27.2217 41.2365 27.5639 40.9013 27.5639 40.4865C27.5639 40.0718 27.2217 39.7365 26.7983 39.7365Z" fill="black"/>
<path d="M26.7983 41.9813H19.9199C19.4965 41.9813 19.1543 42.3165 19.1543 42.7313C19.1543 43.146 19.4965 43.4813 19.9199 43.4813H26.7983C27.2217 43.4813 27.5639 43.146 27.5639 42.7313C27.5639 42.3165 27.2217 41.9813 26.7983 41.9813Z" fill="black"/>
<path d="M39.8093 6.00314L30.6218 6.00764V3.76214C30.6218 1.68989 28.9014 0.00463867 26.786 0.00463867H10.7247C8.60932 0.00463867 6.88896 1.68989 6.88896 3.76214V25.5309H6.1264C5.92274 25.5309 5.72751 25.6096 5.58434 25.7514L4.05462 27.2529C3.91145 27.3939 3.83105 27.5836 3.83105 27.7824V33.0324C3.83105 33.4471 4.17329 33.7824 4.59668 33.7824V36.0339C4.59668 36.4486 4.93891 36.7839 5.3623 36.7839H9.95605C10.3794 36.7839 10.7217 36.4486 10.7217 36.0339V33.7824C11.1451 33.7824 11.4873 33.4471 11.4873 33.0324V27.7824C11.4873 27.5829 11.4069 27.3924 11.263 27.2521L9.7302 25.7506C9.58626 25.6096 9.39255 25.5309 9.1889 25.5309H8.42021V3.76214C8.42021 2.51789 9.45457 1.50464 10.7247 1.50464H26.7868C28.057 1.50464 29.0913 2.51789 29.0913 3.76214V6.00839L20.6855 6.01214C17.731 6.01214 15.3261 8.36789 15.3261 11.2621V35.2501C15.3261 35.2509 15.3269 35.2516 15.3269 35.2531C15.3269 35.2561 15.3261 35.2599 15.3261 35.2636V42.7464C15.3261 45.6406 17.731 47.9964 20.6855 47.9964H39.807C42.7616 47.9964 45.1664 45.6406 45.1664 42.7464V35.2636C45.1664 35.2599 45.1656 35.2561 45.1656 35.2531C45.1656 35.2516 45.1664 35.2509 45.1664 35.2501V11.2689C45.1664 11.2636 45.1694 11.2591 45.1694 11.2539C45.1687 8.35889 42.7639 6.00314 39.8093 6.00314ZM9.19043 35.2839H6.12793V33.7824H9.19043V35.2839ZM9.95605 28.0929V32.2824H5.3623V28.0929L6.44413 27.0309H8.87193L9.95605 28.0929ZM43.6344 42.7456C43.6344 44.8134 41.9171 46.4956 39.8062 46.4956H20.6855C18.5747 46.4956 16.8574 44.8134 16.8574 42.7456V35.2629C16.8574 33.1951 18.5747 31.5129 20.6855 31.5129H39.807C41.9178 31.5129 43.6351 33.1951 43.6351 35.2629V42.7456H43.6344ZM39.8062 30.0136H20.6855C19.1864 30.0136 17.8305 30.6219 16.8574 31.5961V11.2621C16.8574 9.19439 18.5747 7.51214 20.6855 7.51214L29.8355 7.50764C29.8432 7.50839 29.8493 7.51214 29.8562 7.51214C29.8631 7.51214 29.8707 7.50839 29.8776 7.50764L39.8093 7.50314C41.9186 7.50314 43.6344 9.18389 43.6367 11.2494C43.6367 11.2539 43.6344 11.2576 43.6344 11.2621V31.5961C42.6613 30.6211 41.3053 30.0136 39.8062 30.0136Z" fill="black"/>
</svg>
