<svg width="50" height="50" viewBox="0 0 50 50" fill="none" xmlns="http://www.w3.org/2000/svg">
<g clip-path="url(#clip0)">
<path d="M46.0057 42.6493H31.1262C33.2316 41.7751 35.1497 40.5383 36.8022 39.0168H39.6622C45.3625 39.0168 50 34.3793 50 28.6789C50 25.6456 47.5322 23.1779 44.499 23.1779H43.0341V20.4555C43.0341 19.432 42.2014 18.5992 41.1778 18.5992H6.33857C5.31504 18.5992 4.48232 19.432 4.48232 20.4555V23.7044C4.48232 24.1089 4.81025 24.4368 5.21475 24.4368C5.61924 24.4368 5.94717 24.1089 5.94717 23.7044V20.4555C5.94717 20.2397 6.12275 20.0641 6.33857 20.0641H15.048V23.4153C14.8486 23.5046 14.6647 23.6295 14.5063 23.7895L11.7568 26.5649C11.422 26.903 11.2375 27.3513 11.2375 27.8272V33.9505C11.2375 34.9395 12.0421 35.7441 13.0311 35.7441H18.5299C19.5188 35.7441 20.3235 34.9395 20.3235 33.9505V27.8272C20.3235 27.3512 20.1391 26.903 19.8041 26.5649L17.0548 23.7896C16.8963 23.6295 16.7123 23.5046 16.513 23.4153V20.0641H41.1779C41.3937 20.0641 41.5693 20.2397 41.5693 20.4555V24.8357V24.8418C41.5676 34.6354 33.6011 42.6493 23.7583 42.6493C14.771 42.6493 7.17119 35.9332 6.08047 27.027C6.03135 26.6255 5.66611 26.3394 5.26445 26.389C4.86299 26.4381 4.57734 26.8035 4.62646 27.205C5.4915 34.2683 10.1387 40.0584 16.3871 42.6493H1.51074C0.677734 42.6493 0 43.3271 0 44.1601C0 46.2807 1.7252 48.0059 3.8458 48.0059H35.2911C35.6956 48.0059 36.0235 47.678 36.0235 47.2735C36.0235 46.869 35.6956 46.541 35.2911 46.541H3.8458C2.53291 46.541 1.46484 45.473 1.46484 44.1601C1.46484 44.1348 1.48545 44.1142 1.51074 44.1142H46.0057C46.031 44.1142 46.0516 44.1348 46.0516 44.1601C46.0516 45.473 44.9835 46.541 43.6706 46.541H38.709C38.3045 46.541 37.9766 46.869 37.9766 47.2735C37.9766 47.678 38.3045 48.0059 38.709 48.0059H43.6706C45.7912 48.0059 47.5164 46.2807 47.5164 44.1601C47.5164 43.327 46.8387 42.6493 46.0057 42.6493ZM18.7634 27.5957C18.8248 27.6577 18.8586 27.7399 18.8586 27.8272V33.9505C18.8586 34.1318 18.7111 34.2792 18.5298 34.2792H13.031C12.8497 34.2792 12.7022 34.1318 12.7022 33.9505V27.8272C12.7022 27.7399 12.736 27.6577 12.7975 27.5957L15.0479 25.3239V27.4073C15.0479 27.8118 15.3759 28.1398 15.7804 28.1398C16.1849 28.1398 16.5128 27.8118 16.5128 27.4073V25.3239L18.7634 27.5957ZM42.8838 27.2474H44.499C45.2884 27.2474 45.9305 27.8896 45.9305 28.6788C45.9305 31.9614 43.3938 34.6607 40.1781 34.9241C41.5886 32.6365 42.5349 30.0336 42.8838 27.2474ZM43.0347 24.6427H44.499C46.7246 24.6427 48.5352 26.4533 48.5352 28.6789C48.5352 33.5715 44.5548 37.552 39.6622 37.552H38.2461C38.5692 37.1838 38.8785 36.8033 39.1728 36.4121H39.6622C43.9263 36.4121 47.3954 32.9431 47.3954 28.6789C47.3954 27.0819 46.0961 25.7826 44.4991 25.7826H43.0109C43.0292 25.4041 43.0342 25.0217 43.0347 24.6427Z" fill="black"/>
<path d="M22.7936 16.6576C23.1932 16.6576 23.5171 16.3337 23.5171 15.9341C23.5171 14.1409 25.4465 14.0212 25.4465 11.529C25.4465 9.03438 23.5171 8.92051 23.5171 7.12334C23.5171 5.33193 25.4465 5.2084 25.4465 2.71768C25.4465 2.31807 25.1226 1.99414 24.723 1.99414C24.3234 1.99414 23.9995 2.31807 23.9995 2.71768C23.9995 4.51094 22.0701 4.63096 22.0701 7.12334C22.0701 9.61826 23.9995 9.73164 23.9995 11.529C23.9995 13.3221 22.0701 13.442 22.0701 15.9341C22.0701 16.3337 22.394 16.6576 22.7936 16.6576Z" fill="black"/>
<path d="M28.2628 16.6576C28.6625 16.6576 28.9864 16.3337 28.9864 15.9341C28.9864 14.1409 30.9158 14.0212 30.9158 11.529C30.9158 9.03438 28.9864 8.92051 28.9864 7.12334C28.9864 5.33193 30.9158 5.2084 30.9158 2.71768C30.9158 2.31807 30.5918 1.99414 30.1922 1.99414C29.7926 1.99414 29.4687 2.31807 29.4687 2.71768C29.4687 4.51094 27.5393 4.63096 27.5393 7.12334C27.5393 9.61826 29.4687 9.73164 29.4687 11.529C29.4687 13.3221 27.5393 13.442 27.5393 15.9341C27.5393 16.3337 27.8632 16.6576 28.2628 16.6576Z" fill="black"/>
<path d="M17.3244 16.6576C17.724 16.6576 18.0479 16.3337 18.0479 15.9341C18.0479 14.1409 19.9773 14.0212 19.9773 11.529C19.9773 9.03438 18.0479 8.92051 18.0479 7.12334C18.0479 5.33193 19.9773 5.2084 19.9773 2.71768C19.9773 2.31807 19.6534 1.99414 19.2538 1.99414C18.8541 1.99414 18.5302 2.31807 18.5302 2.71768C18.5302 4.51094 16.6008 4.63096 16.6008 7.12334C16.6008 9.61826 18.5302 9.73164 18.5302 11.529C18.5302 13.3221 16.6008 13.442 16.6008 15.9341C16.6008 16.3337 16.9248 16.6576 17.3244 16.6576Z" fill="black"/>
</g>
<defs>
<clipPath id="clip0">
<rect width="50" height="50" fill="white"/>
</clipPath>
</defs>
</svg>
