<svg width="57" height="51" viewBox="0 0 57 51" fill="none" xmlns="http://www.w3.org/2000/svg">
<path d="M47.7714 0.32381C47.7111 0.107937 47.4699 0 47.1683 0H10.0127C9.71113 0 9.40954 0.107937 9.22859 0.32381C9.04764 0.539683 8.927 0.755556 8.927 1.0254L13.0889 46.5746C13.3302 49.0032 15.7429 51 18.4572 51H38.5429C41.3175 51 43.7302 49.0032 43.9111 46.5746L48.073 1.0254C48.073 0.755556 48.0127 0.485714 47.7714 0.32381ZM38.6635 49.1651H18.5175C16.8889 49.1651 15.4413 47.9778 15.2603 46.5206H41.9207C41.7397 47.9778 40.2318 49.1651 38.6635 49.1651ZM42.1016 44.6317H15.0794L11.1587 1.88889H45.9619L42.1016 44.6317Z" fill="black"/>
<path d="M41.7396 16.5682C41.438 16.3524 41.0761 16.2984 40.7745 16.4063C36.7936 17.6476 32.5713 17.6476 28.8316 16.4603C27.4443 16.0286 25.8158 15.8127 24.0666 15.8127C19.7237 15.8127 15.7428 17.1619 15.5618 17.2159C15.1396 17.3778 14.838 17.7555 14.8983 18.1873L16.9491 41.5016C17.0094 41.9873 17.4316 42.3651 17.9745 42.3651H39.3269C39.8697 42.3651 40.3523 41.9873 40.3523 41.5016L42.1618 17.3778C42.1618 17.054 42.0412 16.7301 41.7396 16.5682ZM38.3618 40.4222H18.9396L17.1301 18.727C18.3967 18.3492 21.2316 17.6476 24.1269 17.6476C25.6348 17.6476 27.0221 17.8635 28.1682 18.1873C31.8475 19.3746 36.0094 19.4825 39.9904 18.5651L38.3618 40.4222Z" fill="black"/>
</svg>
