<svg width="50" height="45" viewBox="0 0 50 45" fill="none" xmlns="http://www.w3.org/2000/svg">
<path d="M38.2669 0.77655H29.3954C28.8539 0.77655 28.415 1.29459 28.415 1.93341C28.415 2.57223 28.8539 3.09028 29.3954 3.09028H38.2669C43.6554 3.09028 48.0392 8.2633 48.0392 14.6218C48.0392 20.9802 43.6554 26.1531 38.2669 26.1531H11.7331C6.34461 26.1531 1.96078 20.9802 1.96078 14.6218C1.96078 8.2633 6.34461 3.09028 11.7331 3.09028H20.6045C21.146 3.09028 21.5849 2.57223 21.5849 1.93341C21.5849 1.29459 21.146 0.77655 20.6045 0.77655H11.7331C5.26343 0.77655 0 6.98751 0 14.6218C0 22.2559 5.26343 28.4669 11.7331 28.4669H24.0196V32.7898H16.2656C15.7241 32.7898 15.2852 33.3079 15.2852 33.9467V43.1992C15.2852 43.838 15.7241 44.356 16.2656 44.356H34.3299C34.8714 44.356 35.3103 43.838 35.3103 43.1992V33.9467C35.3103 33.3079 34.8714 32.7898 34.3299 32.7898H25.9804V28.4669H38.2669C44.7365 28.4669 50 22.2559 50 14.6218C50 6.98751 44.7365 0.77655 38.2669 0.77655ZM33.3496 42.0423H17.246V35.1036H33.3495V42.0423H33.3496Z" fill="black"/>
<path d="M17.3457 14.6217C17.3457 19.602 20.7794 23.6538 25.0001 23.6538C29.2208 23.6538 32.6545 19.602 32.6545 14.6217C32.6545 9.64133 29.2208 5.58954 25.0001 5.58954C20.7794 5.58954 17.3457 9.64133 17.3457 14.6217ZM30.6937 14.6217C30.6937 18.3263 28.1396 21.3401 25.0001 21.3401C21.8606 21.3401 19.3065 18.3263 19.3065 14.6217C19.3065 10.9172 21.8606 7.90326 25.0001 7.90326C28.1396 7.90326 30.6937 10.9171 30.6937 14.6217Z" fill="black"/>
<path d="M43.0438 10.1481C43.0438 7.90101 41.4946 6.07281 39.5902 6.07281C37.686 6.07281 36.1367 7.90101 36.1367 10.1481C36.1367 12.3952 37.6859 14.2233 39.5902 14.2233C41.4946 14.2231 43.0438 12.3952 43.0438 10.1481ZM38.0976 10.1481C38.0976 9.17679 38.7672 8.38654 39.5903 8.38654C40.4135 8.38654 41.0831 9.17679 41.0831 10.1481C41.0831 11.1194 40.4134 11.9095 39.5903 11.9095C38.7673 11.9095 38.0976 11.1193 38.0976 10.1481Z" fill="black"/>
<path d="M5.77776 13.6992C5.23628 13.6992 4.79736 14.2172 4.79736 14.856C4.79736 15.4948 5.23628 16.0129 5.77776 16.0129H8.90521C9.44668 16.0129 9.8856 15.4948 9.8856 14.856C9.8856 14.2172 9.44668 13.6992 8.90521 13.6992H5.77776Z" fill="black"/>
<path d="M25.0004 2.95771C25.5419 2.95771 25.9808 2.43976 25.9808 1.80084C25.9808 1.16193 25.5419 0.643982 25.0004 0.643982C24.459 0.643982 24.02 1.16193 24.02 1.80084C24.02 2.43976 24.459 2.95771 25.0004 2.95771Z" fill="black"/>
<path d="M21.3726 14.6218C21.3726 16.982 22.9998 18.9022 25 18.9022C27.0002 18.9022 28.6275 16.982 28.6275 14.6218C28.6275 12.2615 27.0002 10.3414 25 10.3414C22.9998 10.3414 21.3726 12.2614 21.3726 14.6218ZM26.6667 14.6218C26.6667 15.7062 25.919 16.5884 25 16.5884C24.081 16.5884 23.3333 15.7062 23.3333 14.6218C23.3333 13.5373 24.081 12.6551 25 12.6551C25.919 12.6551 26.6667 13.5373 26.6667 14.6218Z" fill="black"/>
<path d="M13.309 15.9918C13.8505 15.9918 14.2894 15.4738 14.2894 14.8349C14.2894 14.196 13.8505 13.678 13.309 13.678C12.7675 13.678 12.3286 14.196 12.3286 14.8349C12.3286 15.4738 12.7675 15.9918 13.309 15.9918Z" fill="black"/>
</svg>
