<svg width="491" height="73" viewBox="0 0 491 73" fill="none" xmlns="http://www.w3.org/2000/svg">
<g filter="url(#filter0_d)">
<path d="M47.33 50L47.266 23.12L34.082 45.264H29.41L16.29 23.696V50H6.562V5.2H15.138L31.906 33.04L48.418 5.2H56.93L57.058 50H47.33ZM101.159 15.568L85.607 52.112C84.0283 56.08 82.0657 58.8747 79.719 60.496C77.415 62.1173 74.6203 62.928 71.335 62.928C69.543 62.928 67.7723 62.6507 66.023 62.096C64.2737 61.5413 62.8443 60.7733 61.735 59.792L65.383 52.688C66.151 53.3707 67.0257 53.904 68.007 54.288C69.031 54.672 70.0337 54.864 71.015 54.864C72.3803 54.864 73.4897 54.5227 74.343 53.84C75.1963 53.2 75.9643 52.112 76.647 50.576L76.775 50.256L61.863 15.568H72.167L81.831 38.928L91.559 15.568H101.159ZM127.127 50.768C122.562 50.768 118.423 49.7867 114.711 47.824C111.042 45.8187 108.14 43.0667 106.007 39.568C103.916 36.0267 102.871 32.0373 102.871 27.6C102.871 23.1627 103.916 19.1947 106.007 15.696C108.14 12.1547 111.042 9.40267 114.711 7.44C118.423 5.43467 122.583 4.432 127.191 4.432C131.074 4.432 134.572 5.11467 137.687 6.48C140.844 7.84533 143.49 9.808 145.623 12.368L138.967 18.512C135.938 15.0133 132.183 13.264 127.703 13.264C124.93 13.264 122.455 13.8827 120.279 15.12C118.103 16.3147 116.396 18 115.159 20.176C113.964 22.352 113.367 24.8267 113.367 27.6C113.367 30.3733 113.964 32.848 115.159 35.024C116.396 37.2 118.103 38.9067 120.279 40.144C122.455 41.3387 124.93 41.936 127.703 41.936C132.183 41.936 135.938 40.1653 138.967 36.624L145.623 42.768C143.49 45.3707 140.844 47.3547 137.687 48.72C134.53 50.0853 131.01 50.768 127.127 50.768ZM167.117 50.512C163.49 50.512 160.226 49.7653 157.325 48.272C154.466 46.736 152.226 44.624 150.605 41.936C148.984 39.248 148.173 36.1973 148.173 32.784C148.173 29.3707 148.984 26.32 150.605 23.632C152.226 20.944 154.466 18.8533 157.325 17.36C160.226 15.824 163.49 15.056 167.117 15.056C170.744 15.056 173.986 15.824 176.845 17.36C179.704 18.8533 181.944 20.944 183.565 23.632C185.186 26.32 185.997 29.3707 185.997 32.784C185.997 36.1973 185.186 39.248 183.565 41.936C181.944 44.624 179.704 46.736 176.845 48.272C173.986 49.7653 170.744 50.512 167.117 50.512ZM167.117 42.32C169.677 42.32 171.768 41.4667 173.389 39.76C175.053 38.0107 175.885 35.6853 175.885 32.784C175.885 29.8827 175.053 27.5787 173.389 25.872C171.768 24.1227 169.677 23.248 167.117 23.248C164.557 23.248 162.445 24.1227 160.781 25.872C159.117 27.5787 158.285 29.8827 158.285 32.784C158.285 35.6853 159.117 38.0107 160.781 39.76C162.445 41.4667 164.557 42.32 167.117 42.32ZM213.599 15.056C217.865 15.056 221.3 16.336 223.903 18.896C226.548 21.456 227.871 25.2533 227.871 30.288V50H217.887V31.824C217.887 29.0933 217.289 27.0667 216.095 25.744C214.9 24.3787 213.172 23.696 210.911 23.696C208.393 23.696 206.388 24.4853 204.895 26.064C203.401 27.6 202.655 29.904 202.655 32.976V50H192.671V15.568H202.207V19.6C203.529 18.1493 205.172 17.04 207.135 16.272C209.097 15.4613 211.252 15.056 213.599 15.056ZM247.865 16.336H256.697V24.016H248.121V50H238.137V24.016H232.825V16.336H238.137V14.8C238.137 10.8747 239.289 7.76 241.593 5.456C243.939 3.152 247.225 2 251.449 2C252.942 2 254.35 2.17066 255.673 2.512C257.038 2.81067 258.169 3.25867 259.065 3.856L256.441 11.088C255.289 10.2773 253.945 9.872 252.409 9.872C249.379 9.872 247.865 11.536 247.865 14.864V16.336ZM294.961 32.912C294.961 33.04 294.897 33.936 294.769 35.6H268.721C269.19 37.7333 270.3 39.4187 272.049 40.656C273.798 41.8933 275.974 42.512 278.577 42.512C280.369 42.512 281.948 42.256 283.313 41.744C284.721 41.1893 286.022 40.336 287.217 39.184L292.529 44.944C289.286 48.656 284.55 50.512 278.321 50.512C274.438 50.512 271.004 49.7653 268.017 48.272C265.03 46.736 262.726 44.624 261.105 41.936C259.484 39.248 258.673 36.1973 258.673 32.784C258.673 29.4133 259.462 26.384 261.041 23.696C262.662 20.9653 264.86 18.8533 267.633 17.36C270.449 15.824 273.585 15.056 277.041 15.056C280.412 15.056 283.462 15.7813 286.193 17.232C288.924 18.6827 291.057 20.7733 292.593 23.504C294.172 26.192 294.961 29.328 294.961 32.912ZM277.105 22.608C274.844 22.608 272.945 23.248 271.409 24.528C269.873 25.808 268.934 27.5573 268.593 29.776H285.553C285.212 27.6 284.273 25.872 282.737 24.592C281.201 23.2693 279.324 22.608 277.105 22.608ZM311.144 20.112C312.339 18.448 313.939 17.1893 315.944 16.336C317.992 15.4827 320.339 15.056 322.984 15.056V24.272C321.875 24.1867 321.128 24.144 320.744 24.144C317.885 24.144 315.645 24.9547 314.024 26.576C312.403 28.1547 311.592 30.544 311.592 33.744V50H301.608V15.568H311.144V20.112ZM362.336 32.912C362.336 33.04 362.272 33.936 362.144 35.6H336.096C336.565 37.7333 337.675 39.4187 339.424 40.656C341.173 41.8933 343.349 42.512 345.952 42.512C347.744 42.512 349.323 42.256 350.688 41.744C352.096 41.1893 353.397 40.336 354.592 39.184L359.904 44.944C356.661 48.656 351.925 50.512 345.696 50.512C341.813 50.512 338.379 49.7653 335.392 48.272C332.405 46.736 330.101 44.624 328.48 41.936C326.859 39.248 326.048 36.1973 326.048 32.784C326.048 29.4133 326.837 26.384 328.416 23.696C330.037 20.9653 332.235 18.8533 335.008 17.36C337.824 15.824 340.96 15.056 344.416 15.056C347.787 15.056 350.837 15.7813 353.568 17.232C356.299 18.6827 358.432 20.7733 359.968 23.504C361.547 26.192 362.336 29.328 362.336 32.912ZM344.48 22.608C342.219 22.608 340.32 23.248 338.784 24.528C337.248 25.808 336.309 27.5573 335.968 29.776H352.928C352.587 27.6 351.648 25.872 350.112 24.592C348.576 23.2693 346.699 22.608 344.48 22.608ZM389.911 15.056C394.178 15.056 397.612 16.336 400.215 18.896C402.86 21.456 404.183 25.2533 404.183 30.288V50H394.199V31.824C394.199 29.0933 393.602 27.0667 392.407 25.744C391.212 24.3787 389.484 23.696 387.223 23.696C384.706 23.696 382.7 24.4853 381.207 26.064C379.714 27.6 378.967 29.904 378.967 32.976V50H368.983V15.568H378.519V19.6C379.842 18.1493 381.484 17.04 383.447 16.272C385.41 15.4613 387.564 15.056 389.911 15.056ZM430.248 50.512C426.579 50.512 423.272 49.7653 420.328 48.272C417.427 46.736 415.144 44.624 413.48 41.936C411.859 39.248 411.048 36.1973 411.048 32.784C411.048 29.3707 411.859 26.32 413.48 23.632C415.144 20.944 417.427 18.8533 420.328 17.36C423.272 15.824 426.579 15.056 430.248 15.056C433.875 15.056 437.032 15.824 439.72 17.36C442.451 18.8533 444.435 21.008 445.672 23.824L437.928 27.984C436.136 24.8267 433.555 23.248 430.184 23.248C427.581 23.248 425.427 24.1013 423.72 25.808C422.013 27.5147 421.16 29.84 421.16 32.784C421.16 35.728 422.013 38.0533 423.72 39.76C425.427 41.4667 427.581 42.32 430.184 42.32C433.597 42.32 436.179 40.7413 437.928 37.584L445.672 41.808C444.435 44.5387 442.451 46.672 439.72 48.208C437.032 49.744 433.875 50.512 430.248 50.512ZM484.711 32.912C484.711 33.04 484.647 33.936 484.519 35.6H458.471C458.94 37.7333 460.05 39.4187 461.799 40.656C463.548 41.8933 465.724 42.512 468.327 42.512C470.119 42.512 471.698 42.256 473.063 41.744C474.471 41.1893 475.772 40.336 476.967 39.184L482.279 44.944C479.036 48.656 474.3 50.512 468.071 50.512C464.188 50.512 460.754 49.7653 457.767 48.272C454.78 46.736 452.476 44.624 450.855 41.936C449.234 39.248 448.423 36.1973 448.423 32.784C448.423 29.4133 449.212 26.384 450.791 23.696C452.412 20.9653 454.61 18.8533 457.383 17.36C460.199 15.824 463.335 15.056 466.791 15.056C470.162 15.056 473.212 15.7813 475.943 17.232C478.674 18.6827 480.807 20.7733 482.343 23.504C483.922 26.192 484.711 29.328 484.711 32.912ZM466.855 22.608C464.594 22.608 462.695 23.248 461.159 24.528C459.623 25.808 458.684 27.5573 458.343 29.776H475.303C474.962 27.6 474.023 25.872 472.487 24.592C470.951 23.2693 469.074 22.608 466.855 22.608Z" fill="white"/>
</g>
<defs>
<filter id="filter0_d" x="0.561996" y="0" width="490.149" height="72.928" filterUnits="userSpaceOnUse" color-interpolation-filters="sRGB">
<feFlood flood-opacity="0" result="BackgroundImageFix"/>
<feColorMatrix in="SourceAlpha" type="matrix" values="0 0 0 0 0 0 0 0 0 0 0 0 0 0 0 0 0 0 127 0" result="hardAlpha"/>
<feOffset dy="4"/>
<feGaussianBlur stdDeviation="3"/>
<feComposite in2="hardAlpha" operator="out"/>
<feColorMatrix type="matrix" values="0 0 0 0 0 0 0 0 0 0 0 0 0 0 0 0 0 0 0.25 0"/>
<feBlend mode="normal" in2="BackgroundImageFix" result="effect1_dropShadow"/>
<feBlend mode="normal" in="SourceGraphic" in2="effect1_dropShadow" result="shape"/>
</filter>
</defs>
</svg>
